<?xml version="1.0" encoding="utf-8"?>
<!-- Generator: Adobe Illustrator 26.0.3, SVG Export Plug-In . SVG Version: 6.00 Build 0)  -->
<svg version="1.1" id="Layer_1" xmlns="http://www.w3.org/2000/svg" xmlns:xlink="http://www.w3.org/1999/xlink" x="0px" y="0px"
	 viewBox="0 0 137.75 248.28" style="enable-background:new 0 0 137.75 248.28;" xml:space="preserve">
<g>
	<g>
		<line x1="52.06" y1="12.8" x2="66.93" y2="27.14"/>
		<path d="M52.06,12.8c0,7.93,6.65,14.34,14.88,14.34"/>
		<path d="M66.93,27.14c0-7.93-6.65-14.34-14.88-14.34"/>
	</g>
	<g>
		<line x1="64.07" y1="40.15" x2="68.45" y2="60.35"/>
		<path d="M64.07,40.15c-4.41,6.59-2.45,15.62,4.39,20.19"/>
		<path d="M68.45,60.35c4.41-6.59,2.45-15.62-4.39-20.19"/>
	</g>
	<g>
		<line x1="20.28" y1="41.54" x2="40.69" y2="44.76"/>
		<path d="M20.28,41.54c4.55,6.49,13.67,7.94,20.41,3.22"/>
		<path d="M40.69,44.76c-4.55-6.49-13.67-7.94-20.41-3.22"/>
	</g>
	<g>
		<line x1="93.65" y1="55.49" x2="111.46" y2="45.01"/>
		<path d="M93.65,55.49c7.64,2.13,15.6-2.56,17.81-10.48"/>
		<path d="M111.46,45.01c-7.64-2.13-15.6,2.56-17.81,10.48"/>
	</g>
	<g>
		<line x1="104.88" y1="82.22" x2="113.59" y2="63.48"/>
		<path d="M104.88,82.22c7.49-2.59,11.39-10.97,8.7-18.74"/>
		<path d="M113.59,63.48c-7.49,2.59-11.39,10.97-8.7,18.74"/>
	</g>
	<g>
		<line x1="71.13" y1="67.83" x2="90.1" y2="76.03"/>
		<path d="M71.13,67.83c2.78,7.42,11.26,11.09,18.96,8.21"/>
		<path d="M90.1,76.03c-2.78-7.42-11.26-11.09-18.96-8.21"/>
	</g>
	<g>
		<line x1="96.98" y1="64.93" x2="78.56" y2="74.29"/>
		<path d="M96.98,64.93c-7.49-2.59-15.73,1.59-18.42,9.36"/>
		<path d="M78.56,74.29c7.49,2.59,15.73-1.59,18.42-9.36"/>
	</g>
	<g>
		<line x1="14.28" y1="61.57" x2="33.82" y2="68.28"/>
		<path d="M14.28,61.57c3.35,7.18,12.09,10.18,19.54,6.71"/>
		<path d="M33.82,68.28c-3.35-7.18-12.09-10.18-19.54-6.71"/>
	</g>
	<g>
		<line x1="36.45" y1="55.49" x2="47.71" y2="72.82"/>
		<path d="M36.45,55.49c-1.79,7.72,3.25,15.47,11.26,17.33"/>
		<path d="M47.71,72.82c1.79-7.72-3.25-15.47-11.26-17.33"/>
	</g>
	<g>
		<line x1="50.48" y1="59.52" x2="53.64" y2="79.94"/>
		<path d="M50.48,59.52c-4.8,6.31-3.38,15.44,3.16,20.42"/>
		<path d="M53.64,79.94c4.8-6.31,3.38-15.44-3.16-20.42"/>
	</g>
	<g>
		<line x1="21.49" y1="75.95" x2="33.95" y2="92.43"/>
		<path d="M21.49,75.95c-1.24,7.83,4.34,15.2,12.46,16.49"/>
		<path d="M33.95,92.43c1.24-7.83-4.34-15.2-12.46-16.49"/>
	</g>
	<g>
		<line x1="56.66" y1="87.53" x2="75.85" y2="95.21"/>
		<path d="M56.66,87.53c2.99,7.34,11.57,10.77,19.19,7.67"/>
		<path d="M75.85,95.21c-2.99-7.34-11.57-10.77-19.19-7.67"/>
	</g>
	<g>
		<line x1="39.65" y1="90.64" x2="58.49" y2="82.15"/>
		<path d="M39.65,90.64c7.36,2.94,15.79-0.85,18.84-8.49"/>
		<path d="M58.49,82.15C51.13,79.2,42.7,83,39.65,90.64"/>
	</g>
	<g>
		<line x1="78.56" y1="81.72" x2="96.99" y2="91.06"/>
		<path d="M78.56,81.72c2.33,7.58,10.57,11.76,18.43,9.34"/>
		<path d="M96.99,91.06c-2.33-7.58-10.57-11.76-18.43-9.34"/>
	</g>
	<g>
		<line x1="110.15" y1="95.2" x2="92.97" y2="106.68"/>
		<path d="M110.15,95.2c-7.75-1.69-15.43,3.44-17.18,11.48"/>
		<path d="M92.97,106.68c7.75,1.69,15.43-3.44,17.18-11.48"/>
	</g>
	<g>
		<line x1="97.84" y1="81.87" x2="91.8" y2="101.63"/>
		<path d="M97.84,81.87c-7.07,3.59-9.77,12.43-6.04,19.76"/>
		<path d="M91.8,101.63c7.07-3.59,9.77-12.43,6.04-19.76"/>
	</g>
	<g>
		<line x1="46.39" y1="114.16" x2="66.58" y2="109.75"/>
		<path d="M46.39,114.16c6.6,4.4,15.62,2.42,20.19-4.42"/>
		<path d="M66.58,109.75c-6.6-4.4-15.62-2.42-20.19,4.42"/>
	</g>
	<g>
		<line x1="99.1" y1="131.58" x2="119.2" y2="136.39"/>
		<path d="M99.1,131.58c4.02,6.83,13.01,8.99,20.1,4.81"/>
		<path d="M119.2,136.39c-4.02-6.83-13.01-8.99-20.1-4.81"/>
	</g>
	<g>
		<line x1="78.53" y1="126.3" x2="95.01" y2="113.84"/>
		<path d="M78.53,126.3c7.83,1.24,15.2-4.34,16.49-12.46"/>
		<path d="M95.01,113.84c-7.83-1.24-15.2,4.34-16.49,12.46"/>
	</g>
	<g>
		<line x1="73.18" y1="93.33" x2="88.06" y2="107.68"/>
		<path d="M73.18,93.33c0,7.93,6.65,14.34,14.88,14.34"/>
		<path d="M88.06,107.68c0-7.93-6.65-14.34-14.88-14.34"/>
	</g>
	<g>
		<line x1="64.28" y1="101.06" x2="82.76" y2="110.29"/>
		<path d="M64.28,101.06c2.37,7.56,10.64,11.7,18.48,9.24"/>
		<path d="M82.76,110.29c-2.37-7.56-10.64-11.7-18.48-9.24"/>
	</g>
	<g>
		<line x1="21.16" y1="104.16" x2="41.81" y2="103.41"/>
		<path d="M21.16,104.16c5.71,5.5,14.94,5.16,20.65-0.76"/>
		<path d="M41.81,103.41c-5.71-5.5-14.94-5.16-20.65,0.76"/>
	</g>
	<g>
		<line x1="25.11" y1="111.97" x2="42.53" y2="100.84"/>
		<path d="M25.11,111.97c7.71,1.85,15.5-3.13,17.41-11.13"/>
		<path d="M42.53,100.84c-7.71-1.85-15.5,3.13-17.41,11.13"/>
	</g>
	<g>
		<line x1="83.77" y1="132.26" x2="98.47" y2="146.78"/>
		<path d="M83.77,132.26c-0.09,7.93,6.48,14.42,14.71,14.52"/>
		<path d="M98.47,146.78c0.09-7.93-6.48-14.42-14.71-14.52"/>
	</g>
	<g>
		<line x1="30.66" y1="133.9" x2="50.73" y2="129.01"/>
		<path d="M30.66,133.9c6.7,4.24,15.68,2.05,20.08-4.9"/>
		<path d="M50.73,129.01c-6.7-4.24-15.68-2.05-20.08,4.9"/>
	</g>
	<g>
		<line x1="15.78" y1="146.08" x2="33.2" y2="134.96"/>
		<path d="M15.78,146.08c7.71,1.85,15.5-3.12,17.42-11.12"/>
		<path d="M33.2,134.96c-7.71-1.85-15.5,3.13-17.42,11.12"/>
	</g>
	<g>
		<line x1="101.98" y1="162.75" x2="116.95" y2="177"/>
		<path d="M101.98,162.75c0.05,7.93,6.74,14.3,14.96,14.25"/>
		<path d="M116.95,177c-0.05-7.93-6.74-14.3-14.96-14.25"/>
	</g>
	<g>
		<line x1="29.55" y1="175.49" x2="46.9" y2="164.26"/>
		<path d="M29.55,175.49c7.72,1.8,15.48-3.22,17.34-11.23"/>
		<path d="M46.9,164.26c-7.72-1.8-15.48,3.22-17.34,11.23"/>
	</g>
	<path d="M66.93,237.35c-0.28-4.77-0.71-11.91-1.28-20.6c-1.14-17.49-1.21-16.62-1.35-20.83c-0.48-14.11,0.31-25.71,0.82-32.85
		c0.64-9.1,1.01-9.5,1.48-17.36c0.65-10.81,0.54-19.67,0.33-25.56c-0.67,10.92-1.74,19.81-2.63,26.03
		c-1.64,11.47-3.18,17.81-4.43,31.28c-0.45,4.81-0.68,8.71-0.94,12.92c-0.38,6.23-0.86,14.16-0.94,24.22
		c-0.05,6.09,0.03,13.8,0.5,22.75c0.12,0.17,1.72,2.29,4.45,2.17C65.39,239.41,66.76,237.58,66.93,237.35z"/>
</g>
</svg>
